<svg width="80" height="81" viewBox="0 0 80 81" fill="none" xmlns="http://www.w3.org/2000/svg">
<path fill-rule="evenodd" clip-rule="evenodd" d="M79.9829 17.465C79.9756 17.347 79.9526 17.2296 79.9137 17.1182C79.9097 17.1063 79.906 17.0945 79.9023 17.0827C79.8925 17.0518 79.883 17.0216 79.8696 16.991C79.8037 16.844 79.7122 16.7102 79.5996 16.5955L63.4137 0.395508C63.2991 0.282129 63.1648 0.190503 63.0172 0.125244C62.9888 0.112177 62.96 0.102744 62.9309 0.0932028L62.9309 0.0931876L62.9309 0.0931844C62.9189 0.0892552 62.9068 0.0853073 62.8947 0.0810791C62.7801 0.0415284 62.6616 0.0177979 62.5411 0.0105469C62.5285 0.0130642 62.5155 0.00969572 62.5017 0.00611427C62.4902 0.003131 62.4782 0 62.4653 0H22.0007C18.2782 0.00461427 15.2612 3.02366 15.2566 6.75V16.6858C5.98408 20.7787 0 29.965 0 40.1084C0 50.2519 5.98408 59.4382 15.2566 63.5311V74.25C15.2612 77.9763 18.2782 80.9954 22.0007 81H73.2559C76.979 80.9954 79.996 77.9763 80 74.25V17.55C80 17.5338 79.9957 17.5188 79.9913 17.5037C79.9877 17.4911 79.9841 17.4784 79.9829 17.465ZM75.395 16.2H65.163C64.4181 16.2 63.8141 15.5955 63.8141 14.85V4.60898L75.395 16.2ZM9.43319 23.8715C5.13119 28.1773 2.71806 34.0189 2.72596 40.1084C2.72728 48.4596 7.26045 56.1516 14.5631 60.1917C21.8657 64.2324 30.7845 63.9833 37.8506 59.5417C40.7689 57.7112 43.2354 55.2432 45.0657 52.323C47.3734 48.6686 48.5945 44.432 48.5846 40.1084C48.576 38.9575 48.4818 37.8086 48.3027 36.6715C46.7576 26.2967 38.3637 18.3008 27.934 17.2692C27.1832 17.196 26.4225 17.1584 25.6559 17.1584C19.5724 17.1505 13.7352 19.5658 9.43319 23.8715ZM41.3215 60.3881C41.5059 60.2451 41.6883 60.1033 41.8688 59.9563C42.5346 59.4198 43.1722 58.8496 43.7801 58.2484C44.3807 57.64 44.9504 57.0026 45.4865 56.3368C45.6194 56.1733 45.7481 56.0071 45.8772 55.8402L45.8777 55.8396L45.9179 55.7877C45.9844 55.7007 46.0532 55.6157 46.1219 55.5306C46.222 55.4068 46.3219 55.2832 46.4145 55.1542L57.913 66.6767C58.6744 67.4314 59.1031 68.4598 59.1031 69.5322C59.1031 70.6054 58.6744 71.6331 57.913 72.3885C56.3205 73.929 53.7948 73.929 52.2023 72.3885L40.6886 60.8851C40.8192 60.79 40.9449 60.6887 41.0704 60.5875C41.1537 60.5204 41.2369 60.4533 41.3215 60.3881ZM22.0007 78.3H73.2559C75.4912 78.3 77.3024 76.4866 77.3024 74.25V18.9H65.163C62.9283 18.9 61.1165 17.0866 61.1165 14.85V2.7H21.9967C19.7621 2.7 17.9503 4.5134 17.9503 6.75V15.6318C17.9952 15.6173 18.0405 15.6054 18.0857 15.5936C18.1248 15.5834 18.1638 15.5732 18.2025 15.5613C18.3508 15.5172 18.498 15.4789 18.6448 15.4406C18.7223 15.4204 18.7996 15.4003 18.8769 15.3793C19.3761 15.2416 19.8793 15.1176 20.3864 15.0122C20.6407 14.9588 20.8962 14.91 21.1524 14.8652C21.6661 14.7755 22.1818 14.7017 22.7008 14.6437C22.7719 14.6354 22.8429 14.6266 22.9139 14.6178C23.0746 14.598 23.2353 14.5781 23.3969 14.5639C24.1444 14.5006 24.8966 14.4584 25.6559 14.4584C32.458 14.4387 38.9848 17.1433 43.7814 21.9698C47.9754 26.1523 50.5841 31.6657 51.1597 37.564C51.2427 38.4051 51.2835 39.2535 51.2835 40.1084C51.2875 44.5704 50.1198 48.9553 47.8983 52.824L59.819 64.7624C61.65 66.4387 62.4126 68.9865 61.8047 71.3944C61.1975 73.8024 59.3178 75.6817 56.9113 76.2875C54.5054 76.894 51.9606 76.128 50.2871 74.2948L38.3611 62.3703C34.4957 64.5937 30.1147 65.7617 25.6559 65.7584C24.8966 65.7584 24.1444 65.7169 23.3969 65.653C23.2427 65.6399 23.0902 65.6211 22.9374 65.6022C22.8591 65.5925 22.7808 65.5828 22.7021 65.5739C22.1818 65.5139 21.6635 65.4427 21.1498 65.3524C20.8949 65.3076 20.6426 65.2588 20.3904 65.2061C19.8767 65.1052 19.3682 64.9701 18.8637 64.8349C18.7844 64.8129 18.705 64.7919 18.6257 64.771C18.4867 64.7343 18.348 64.6976 18.2104 64.6556C18.1717 64.6439 18.1324 64.6338 18.0932 64.6238C18.0464 64.6118 17.9997 64.5998 17.9542 64.5851V74.25C17.9542 76.4866 19.766 78.3 22.0007 78.3Z" fill="url(#paint0_linear_1_250)"/>
<path fill-rule="evenodd" clip-rule="evenodd" d="M79.9829 17.465C79.9756 17.347 79.9526 17.2296 79.9137 17.1182C79.9097 17.1063 79.906 17.0945 79.9023 17.0827C79.8925 17.0518 79.883 17.0216 79.8696 16.991C79.8037 16.844 79.7122 16.7102 79.5996 16.5955L63.4137 0.395508C63.2991 0.282129 63.1648 0.190503 63.0172 0.125244C62.9888 0.112177 62.96 0.102744 62.9309 0.0932028L62.9309 0.0931876L62.9309 0.0931844C62.9189 0.0892552 62.9068 0.0853073 62.8947 0.0810791C62.7801 0.0415284 62.6616 0.0177979 62.5411 0.0105469C62.5285 0.0130642 62.5155 0.00969572 62.5017 0.00611427C62.4902 0.003131 62.4782 0 62.4653 0H22.0007C18.2782 0.00461427 15.2612 3.02366 15.2566 6.75V16.6858C5.98408 20.7787 0 29.965 0 40.1084C0 50.2519 5.98408 59.4382 15.2566 63.5311V74.25C15.2612 77.9763 18.2782 80.9954 22.0007 81H73.2559C76.979 80.9954 79.996 77.9763 80 74.25V17.55C80 17.5338 79.9957 17.5188 79.9913 17.5037C79.9877 17.4911 79.9841 17.4784 79.9829 17.465ZM75.395 16.2H65.163C64.4181 16.2 63.8141 15.5955 63.8141 14.85V4.60898L75.395 16.2ZM9.43319 23.8715C5.13119 28.1773 2.71806 34.0189 2.72596 40.1084C2.72728 48.4596 7.26045 56.1516 14.5631 60.1917C21.8657 64.2324 30.7845 63.9833 37.8506 59.5417C40.7689 57.7112 43.2354 55.2432 45.0657 52.323C47.3734 48.6686 48.5945 44.432 48.5846 40.1084C48.576 38.9575 48.4818 37.8086 48.3027 36.6715C46.7576 26.2967 38.3637 18.3008 27.934 17.2692C27.1832 17.196 26.4225 17.1584 25.6559 17.1584C19.5724 17.1505 13.7352 19.5658 9.43319 23.8715ZM41.3215 60.3881C41.5059 60.2451 41.6883 60.1033 41.8688 59.9563C42.5346 59.4198 43.1722 58.8496 43.7801 58.2484C44.3807 57.64 44.9504 57.0026 45.4865 56.3368C45.6194 56.1733 45.7481 56.0071 45.8772 55.8402L45.8777 55.8396L45.9179 55.7877C45.9844 55.7007 46.0532 55.6157 46.1219 55.5306C46.222 55.4068 46.3219 55.2832 46.4145 55.1542L57.913 66.6767C58.6744 67.4314 59.1031 68.4598 59.1031 69.5322C59.1031 70.6054 58.6744 71.6331 57.913 72.3885C56.3205 73.929 53.7948 73.929 52.2023 72.3885L40.6886 60.8851C40.8192 60.79 40.9449 60.6887 41.0704 60.5875C41.1537 60.5204 41.2369 60.4533 41.3215 60.3881ZM22.0007 78.3H73.2559C75.4912 78.3 77.3024 76.4866 77.3024 74.25V18.9H65.163C62.9283 18.9 61.1165 17.0866 61.1165 14.85V2.7H21.9967C19.7621 2.7 17.9503 4.5134 17.9503 6.75V15.6318C17.9952 15.6173 18.0405 15.6054 18.0857 15.5936C18.1248 15.5834 18.1638 15.5732 18.2025 15.5613C18.3508 15.5172 18.498 15.4789 18.6448 15.4406C18.7223 15.4204 18.7996 15.4003 18.8769 15.3793C19.3761 15.2416 19.8793 15.1176 20.3864 15.0122C20.6407 14.9588 20.8962 14.91 21.1524 14.8652C21.6661 14.7755 22.1818 14.7017 22.7008 14.6437C22.7719 14.6354 22.8429 14.6266 22.9139 14.6178C23.0746 14.598 23.2353 14.5781 23.3969 14.5639C24.1444 14.5006 24.8966 14.4584 25.6559 14.4584C32.458 14.4387 38.9848 17.1433 43.7814 21.9698C47.9754 26.1523 50.5841 31.6657 51.1597 37.564C51.2427 38.4051 51.2835 39.2535 51.2835 40.1084C51.2875 44.5704 50.1198 48.9553 47.8983 52.824L59.819 64.7624C61.65 66.4387 62.4126 68.9865 61.8047 71.3944C61.1975 73.8024 59.3178 75.6817 56.9113 76.2875C54.5054 76.894 51.9606 76.128 50.2871 74.2948L38.3611 62.3703C34.4957 64.5937 30.1147 65.7617 25.6559 65.7584C24.8966 65.7584 24.1444 65.7169 23.3969 65.653C23.2427 65.6399 23.0902 65.6211 22.9374 65.6022C22.8591 65.5925 22.7808 65.5828 22.7021 65.5739C22.1818 65.5139 21.6635 65.4427 21.1498 65.3524C20.8949 65.3076 20.6426 65.2588 20.3904 65.2061C19.8767 65.1052 19.3682 64.9701 18.8637 64.8349C18.7844 64.8129 18.705 64.7919 18.6257 64.771C18.4867 64.7343 18.348 64.6976 18.2104 64.6556C18.1717 64.6439 18.1324 64.6338 18.0932 64.6238C18.0464 64.6118 17.9997 64.5998 17.9542 64.5851V74.25C17.9542 76.4866 19.766 78.3 22.0007 78.3Z" fill="url(#paint1_linear_1_250)"/>
<path d="M55.7212 9.45001C55.7212 8.70447 55.1173 8.10001 54.3724 8.10001H24.6983C23.9534 8.10001 23.3495 8.70447 23.3495 9.45001C23.3495 10.1955 23.9534 10.8 24.6983 10.8H54.3724C55.1173 10.8 55.7212 10.1955 55.7212 9.45001Z" fill="url(#paint2_linear_1_250)"/>
<path d="M55.7212 9.45001C55.7212 8.70447 55.1173 8.10001 54.3724 8.10001H24.6983C23.9534 8.10001 23.3495 8.70447 23.3495 9.45001C23.3495 10.1955 23.9534 10.8 24.6983 10.8H54.3724C55.1173 10.8 55.7212 10.1955 55.7212 9.45001Z" fill="url(#paint3_linear_1_250)"/>
<path d="M70.5582 32.4H54.3724C53.6275 32.4 53.0236 33.0045 53.0236 33.75C53.0236 34.4955 53.6275 35.1 54.3724 35.1H70.5582C71.3031 35.1 71.9071 34.4955 71.9071 33.75C71.9071 33.0045 71.3031 32.4 70.5582 32.4Z" fill="url(#paint4_linear_1_250)"/>
<path d="M70.5582 32.4H54.3724C53.6275 32.4 53.0236 33.0045 53.0236 33.75C53.0236 34.4955 53.6275 35.1 54.3724 35.1H70.5582C71.3031 35.1 71.9071 34.4955 71.9071 33.75C71.9071 33.0045 71.3031 32.4 70.5582 32.4Z" fill="url(#paint5_linear_1_250)"/>
<path d="M70.5582 40.5H54.3724C53.6275 40.5 53.0236 41.1045 53.0236 41.85C53.0236 42.5955 53.6275 43.2 54.3724 43.2H70.5582C71.3031 43.2 71.9071 42.5955 71.9071 41.85C71.9071 41.1045 71.3031 40.5 70.5582 40.5Z" fill="url(#paint6_linear_1_250)"/>
<path d="M70.5582 40.5H54.3724C53.6275 40.5 53.0236 41.1045 53.0236 41.85C53.0236 42.5955 53.6275 43.2 54.3724 43.2H70.5582C71.3031 43.2 71.9071 42.5955 71.9071 41.85C71.9071 41.1045 71.3031 40.5 70.5582 40.5Z" fill="url(#paint7_linear_1_250)"/>
<path d="M71.9071 49.95C71.9071 49.2044 71.3031 48.6 70.5582 48.6H53.0236C52.2787 48.6 51.6747 49.2044 51.6747 49.95C51.6747 50.6955 52.2787 51.3 53.0236 51.3H70.5582C71.3031 51.3 71.9071 50.6955 71.9071 49.95Z" fill="url(#paint8_linear_1_250)"/>
<path d="M71.9071 49.95C71.9071 49.2044 71.3031 48.6 70.5582 48.6H53.0236C52.2787 48.6 51.6747 49.2044 51.6747 49.95C51.6747 50.6955 52.2787 51.3 53.0236 51.3H70.5582C71.3031 51.3 71.9071 50.6955 71.9071 49.95Z" fill="url(#paint9_linear_1_250)"/>
<path d="M71.9071 58.05C71.9071 57.3045 71.3031 56.7 70.5583 56.7H58.4189C57.674 56.7 57.07 57.3045 57.07 58.05C57.07 58.7955 57.674 59.4 58.4189 59.4H70.5583C71.3031 59.4 71.9071 58.7955 71.9071 58.05Z" fill="url(#paint10_linear_1_250)"/>
<path d="M71.9071 58.05C71.9071 57.3045 71.3031 56.7 70.5583 56.7H58.4189C57.674 56.7 57.07 57.3045 57.07 58.05C57.07 58.7955 57.674 59.4 58.4189 59.4H70.5583C71.3031 59.4 71.9071 58.7955 71.9071 58.05Z" fill="url(#paint11_linear_1_250)"/>
<path d="M55.7212 17.55C55.7212 16.8045 55.1173 16.2 54.3724 16.2H43.5818C42.8369 16.2 42.233 16.8045 42.233 17.55C42.233 18.2955 42.8369 18.9 43.5818 18.9H54.3724C55.1173 18.9 55.7212 18.2955 55.7212 17.55Z" fill="url(#paint12_linear_1_250)"/>
<path d="M55.7212 17.55C55.7212 16.8045 55.1173 16.2 54.3724 16.2H43.5818C42.8369 16.2 42.233 16.8045 42.233 17.55C42.233 18.2955 42.8369 18.9 43.5818 18.9H54.3724C55.1173 18.9 55.7212 18.2955 55.7212 17.55Z" fill="url(#paint13_linear_1_250)"/>
<path d="M71.9071 25.65C71.9071 24.9045 71.3031 24.3 70.5583 24.3H50.3259C49.5811 24.3 48.9771 24.9045 48.9771 25.65C48.9771 26.3955 49.5811 27 50.3259 27H70.5583C71.3031 27 71.9071 26.3955 71.9071 25.65Z" fill="url(#paint14_linear_1_250)"/>
<path d="M71.9071 25.65C71.9071 24.9045 71.3031 24.3 70.5583 24.3H50.3259C49.5811 24.3 48.9771 24.9045 48.9771 25.65C48.9771 26.3955 49.5811 27 50.3259 27H70.5583C71.3031 27 71.9071 26.3955 71.9071 25.65Z" fill="url(#paint15_linear_1_250)"/>
<path d="M20.6519 33.75H30.0936C30.8385 33.75 31.4424 33.1455 31.4424 32.4C31.4424 31.6545 30.8385 31.05 30.0936 31.05H20.6519C19.907 31.05 19.303 31.6545 19.303 32.4C19.303 33.1455 19.907 33.75 20.6519 33.75Z" fill="url(#paint16_linear_1_250)"/>
<path d="M20.6519 33.75H30.0936C30.8385 33.75 31.4424 33.1455 31.4424 32.4C31.4424 31.6545 30.8385 31.05 30.0936 31.05H20.6519C19.907 31.05 19.303 31.6545 19.303 32.4C19.303 33.1455 19.907 33.75 20.6519 33.75Z" fill="url(#paint17_linear_1_250)"/>
<path d="M36.8377 40.5C36.8377 39.7545 36.2338 39.15 35.4889 39.15H15.2566C14.5117 39.15 13.9077 39.7545 13.9077 40.5C13.9077 41.2455 14.5117 41.85 15.2566 41.85H35.4889C36.2338 41.85 36.8377 41.2455 36.8377 40.5Z" fill="url(#paint18_linear_1_250)"/>
<path d="M36.8377 40.5C36.8377 39.7545 36.2338 39.15 35.4889 39.15H15.2566C14.5117 39.15 13.9077 39.7545 13.9077 40.5C13.9077 41.2455 14.5117 41.85 15.2566 41.85H35.4889C36.2338 41.85 36.8377 41.2455 36.8377 40.5Z" fill="url(#paint19_linear_1_250)"/>
<path d="M30.0936 47.25H20.6519C19.907 47.25 19.303 47.8545 19.303 48.6C19.303 49.3455 19.907 49.95 20.6519 49.95H30.0936C30.8385 49.95 31.4424 49.3455 31.4424 48.6C31.4424 47.8545 30.8385 47.25 30.0936 47.25Z" fill="url(#paint20_linear_1_250)"/>
<path d="M30.0936 47.25H20.6519C19.907 47.25 19.303 47.8545 19.303 48.6C19.303 49.3455 19.907 49.95 20.6519 49.95H30.0936C30.8385 49.95 31.4424 49.3455 31.4424 48.6C31.4424 47.8545 30.8385 47.25 30.0936 47.25Z" fill="url(#paint21_linear_1_250)"/>
<path fill-rule="evenodd" clip-rule="evenodd" d="M43.126 50.2756C41.2747 53.5129 38.5467 56.1614 35.257 57.9149V57.9228C28.9891 61.3215 21.396 61.164 15.2743 57.5075C9.15258 53.8517 5.40841 47.2381 5.42092 40.1032C5.41302 36.7776 6.22837 33.5021 7.79388 30.5694C12.7677 21.2598 24.0528 17.3364 33.7218 21.5558C43.3901 25.7752 48.1979 36.7216 44.7679 46.7048C44.7465 46.7656 44.7219 46.8252 44.6974 46.8847C44.675 46.9389 44.6527 46.9929 44.6329 47.0476L44.6264 47.0655C44.4845 47.456 44.347 47.8341 44.1725 48.2315C43.996 48.6349 43.7965 49.0291 43.5917 49.4233C43.5687 49.468 43.5477 49.5134 43.5267 49.5588C43.5018 49.6125 43.4769 49.6664 43.4487 49.7193C43.3866 49.8368 43.3183 49.951 43.2499 50.0653C43.2082 50.1351 43.1664 50.2049 43.126 50.2756ZM13.2563 52.5149C14.4372 53.7001 15.7821 54.7086 17.2501 55.5095V55.5148C22.463 58.3697 28.7678 58.3796 33.9892 55.5405C36.999 53.9321 39.4648 51.4661 41.0731 48.4543V48.4431C44.7231 41.614 43.4981 33.2002 38.0521 27.6981C31.9027 21.5749 22.2055 20.8683 15.2354 26.0356C8.26544 31.2029 6.11444 40.6931 10.1741 48.3653C10.4434 48.8683 10.7365 49.358 11.0553 49.8353C11.7001 50.7983 12.437 51.6955 13.2563 52.5149Z" fill="url(#paint22_linear_1_250)"/>
<path fill-rule="evenodd" clip-rule="evenodd" d="M43.126 50.2756C41.2747 53.5129 38.5467 56.1614 35.257 57.9149V57.9228C28.9891 61.3215 21.396 61.164 15.2743 57.5075C9.15258 53.8517 5.40841 47.2381 5.42092 40.1032C5.41302 36.7776 6.22837 33.5021 7.79388 30.5694C12.7677 21.2598 24.0528 17.3364 33.7218 21.5558C43.3901 25.7752 48.1979 36.7216 44.7679 46.7048C44.7465 46.7656 44.7219 46.8252 44.6974 46.8847C44.675 46.9389 44.6527 46.9929 44.6329 47.0476L44.6264 47.0655C44.4845 47.456 44.347 47.8341 44.1725 48.2315C43.996 48.6349 43.7965 49.0291 43.5917 49.4233C43.5687 49.468 43.5477 49.5134 43.5267 49.5588C43.5018 49.6125 43.4769 49.6664 43.4487 49.7193C43.3866 49.8368 43.3183 49.951 43.2499 50.0653C43.2082 50.1351 43.1664 50.2049 43.126 50.2756ZM13.2563 52.5149C14.4372 53.7001 15.7821 54.7086 17.2501 55.5095V55.5148C22.463 58.3697 28.7678 58.3796 33.9892 55.5405C36.999 53.9321 39.4648 51.4661 41.0731 48.4543V48.4431C44.7231 41.614 43.4981 33.2002 38.0521 27.6981C31.9027 21.5749 22.2055 20.8683 15.2354 26.0356C8.26544 31.2029 6.11444 40.6931 10.1741 48.3653C10.4434 48.8683 10.7365 49.358 11.0553 49.8353C11.7001 50.7983 12.437 51.6955 13.2563 52.5149Z" fill="url(#paint23_linear_1_250)"/>
<path d="M73.2559 64.8C72.511 64.8 71.9071 65.4045 71.9071 66.15V71.55C71.9071 72.2955 71.3031 72.9 70.5583 72.9H65.163C64.4181 72.9 63.8141 73.5045 63.8141 74.25C63.8141 74.9955 64.4181 75.6 65.163 75.6H70.5583C72.7936 75.6 74.6047 73.7866 74.6047 71.55V66.15C74.6047 65.4045 74.0008 64.8 73.2559 64.8Z" fill="url(#paint24_linear_1_250)"/>
<path d="M73.2559 64.8C72.511 64.8 71.9071 65.4045 71.9071 66.15V71.55C71.9071 72.2955 71.3031 72.9 70.5583 72.9H65.163C64.4181 72.9 63.8141 73.5045 63.8141 74.25C63.8141 74.9955 64.4181 75.6 65.163 75.6H70.5583C72.7936 75.6 74.6047 73.7866 74.6047 71.55V66.15C74.6047 65.4045 74.0008 64.8 73.2559 64.8Z" fill="url(#paint25_linear_1_250)"/>
<defs>
<linearGradient id="paint0_linear_1_250" x1="86.7031" y1="84.3804" x2="86.7031" y2="-10.1641" gradientUnits="userSpaceOnUse">
<stop stop-color="#006DF0"/>
<stop offset="1" stop-color="#00E7F0"/>
</linearGradient>
<linearGradient id="paint1_linear_1_250" x1="97.1215" y1="95.711" x2="126.866" y2="-19.7835" gradientUnits="userSpaceOnUse">
<stop stop-color="#FBA36A"/>
<stop offset="1" stop-color="#D75400"/>
</linearGradient>
<linearGradient id="paint2_linear_1_250" x1="606.308" y1="84.3804" x2="606.308" y2="-10.1641" gradientUnits="userSpaceOnUse">
<stop stop-color="#006DF0"/>
<stop offset="1" stop-color="#00E7F0"/>
</linearGradient>
<linearGradient id="paint3_linear_1_250" x1="62.6493" y1="11.2904" x2="62.7364" y2="7.18706" gradientUnits="userSpaceOnUse">
<stop stop-color="#FBA36A"/>
<stop offset="1" stop-color="#D75400"/>
</linearGradient>
<linearGradient id="paint4_linear_1_250" x1="393.083" y1="84.3804" x2="393.083" y2="-10.1642" gradientUnits="userSpaceOnUse">
<stop stop-color="#006DF0"/>
<stop offset="1" stop-color="#00E7F0"/>
</linearGradient>
<linearGradient id="paint5_linear_1_250" x1="75.9485" y1="35.5904" x2="76.0976" y2="31.4906" gradientUnits="userSpaceOnUse">
<stop stop-color="#FBA36A"/>
<stop offset="1" stop-color="#D75400"/>
</linearGradient>
<linearGradient id="paint6_linear_1_250" x1="393.083" y1="84.3804" x2="393.083" y2="-10.1642" gradientUnits="userSpaceOnUse">
<stop stop-color="#006DF0"/>
<stop offset="1" stop-color="#00E7F0"/>
</linearGradient>
<linearGradient id="paint7_linear_1_250" x1="75.9485" y1="43.6904" x2="76.0976" y2="39.5906" gradientUnits="userSpaceOnUse">
<stop stop-color="#FBA36A"/>
<stop offset="1" stop-color="#D75400"/>
</linearGradient>
<linearGradient id="paint8_linear_1_250" x1="416.024" y1="84.3804" x2="416.024" y2="-10.1642" gradientUnits="userSpaceOnUse">
<stop stop-color="#006DF0"/>
<stop offset="1" stop-color="#00E7F0"/>
</linearGradient>
<linearGradient id="paint9_linear_1_250" x1="76.2372" y1="51.7903" x2="76.3763" y2="47.6899" gradientUnits="userSpaceOnUse">
<stop stop-color="#FBA36A"/>
<stop offset="1" stop-color="#D75400"/>
</linearGradient>
<linearGradient id="paint10_linear_1_250" x1="324.259" y1="84.3804" x2="324.259" y2="-10.1641" gradientUnits="userSpaceOnUse">
<stop stop-color="#006DF0"/>
<stop offset="1" stop-color="#00E7F0"/>
</linearGradient>
<linearGradient id="paint11_linear_1_250" x1="75.0825" y1="59.8904" x2="75.2721" y2="55.794" gradientUnits="userSpaceOnUse">
<stop stop-color="#FBA36A"/>
<stop offset="1" stop-color="#D75400"/>
</linearGradient>
<linearGradient id="paint12_linear_1_250" x1="285.132" y1="84.3804" x2="285.132" y2="-10.1641" gradientUnits="userSpaceOnUse">
<stop stop-color="#006DF0"/>
<stop offset="1" stop-color="#00E7F0"/>
</linearGradient>
<linearGradient id="paint13_linear_1_250" x1="58.6079" y1="19.3904" x2="58.8164" y2="15.2958" gradientUnits="userSpaceOnUse">
<stop stop-color="#FBA36A"/>
<stop offset="1" stop-color="#D75400"/>
</linearGradient>
<linearGradient id="paint14_linear_1_250" x1="461.906" y1="84.3804" x2="461.906" y2="-10.1642" gradientUnits="userSpaceOnUse">
<stop stop-color="#006DF0"/>
<stop offset="1" stop-color="#00E7F0"/>
</linearGradient>
<linearGradient id="paint15_linear_1_250" x1="76.8145" y1="27.4904" x2="76.9374" y2="23.3889" gradientUnits="userSpaceOnUse">
<stop stop-color="#FBA36A"/>
<stop offset="1" stop-color="#D75400"/>
</linearGradient>
<linearGradient id="paint16_linear_1_250" x1="237.912" y1="84.3804" x2="237.912" y2="-10.1642" gradientUnits="userSpaceOnUse">
<stop stop-color="#006DF0"/>
<stop offset="1" stop-color="#00E7F0"/>
</linearGradient>
<linearGradient id="paint17_linear_1_250" x1="34.0405" y1="34.2404" x2="34.272" y2="30.1483" gradientUnits="userSpaceOnUse">
<stop stop-color="#FBA36A"/>
<stop offset="1" stop-color="#D75400"/>
</linearGradient>
<linearGradient id="paint18_linear_1_250" x1="426.837" y1="84.3804" x2="426.837" y2="-10.1642" gradientUnits="userSpaceOnUse">
<stop stop-color="#006DF0"/>
<stop offset="1" stop-color="#00E7F0"/>
</linearGradient>
<linearGradient id="paint19_linear_1_250" x1="41.7451" y1="42.3404" x2="41.868" y2="38.2389" gradientUnits="userSpaceOnUse">
<stop stop-color="#FBA36A"/>
<stop offset="1" stop-color="#D75400"/>
</linearGradient>
<linearGradient id="paint20_linear_1_250" x1="237.912" y1="84.3804" x2="237.912" y2="-10.1642" gradientUnits="userSpaceOnUse">
<stop stop-color="#006DF0"/>
<stop offset="1" stop-color="#00E7F0"/>
</linearGradient>
<linearGradient id="paint21_linear_1_250" x1="34.0405" y1="50.4404" x2="34.272" y2="46.3483" gradientUnits="userSpaceOnUse">
<stop stop-color="#FBA36A"/>
<stop offset="1" stop-color="#D75400"/>
</linearGradient>
<linearGradient id="paint22_linear_1_250" x1="72.8515" y1="84.3804" x2="72.8515" y2="-10.1642" gradientUnits="userSpaceOnUse">
<stop stop-color="#006DF0"/>
<stop offset="1" stop-color="#00E7F0"/>
</linearGradient>
<linearGradient id="paint23_linear_1_250" x1="54.5289" y1="67.7208" x2="69.256" y2="9.89312" gradientUnits="userSpaceOnUse">
<stop stop-color="#FBA36A"/>
<stop offset="1" stop-color="#D75400"/>
</linearGradient>
<linearGradient id="paint24_linear_1_250" x1="116.441" y1="84.3804" x2="116.441" y2="-10.1642" gradientUnits="userSpaceOnUse">
<stop stop-color="#006DF0"/>
<stop offset="1" stop-color="#00E7F0"/>
</linearGradient>
<linearGradient id="paint25_linear_1_250" x1="76.9141" y1="77.5615" x2="80.84" y2="62.1403" gradientUnits="userSpaceOnUse">
<stop stop-color="#FBA36A"/>
<stop offset="1" stop-color="#D75400"/>
</linearGradient>
</defs>
</svg>
