<svg width="95" height="80" viewBox="0 0 95 80" fill="none" xmlns="http://www.w3.org/2000/svg">
<path fill-rule="evenodd" clip-rule="evenodd" d="M91.2891 0H3.71094C1.66229 0.00204159 0.00204558 1.65905 0 3.7037V61.4815C0.00204558 63.5261 1.66229 65.1831 3.71094 65.1852H33.8734L32.8826 71.1111H28.2031C27.3833 71.1111 26.7188 71.7744 26.7188 72.5926V78.5185C26.7188 79.3367 27.3833 80 28.2031 80H66.7969C67.6167 80 68.2812 79.3367 68.2812 78.5185V72.5926C68.2812 71.7744 67.6167 71.1111 66.7969 71.1111H62.1174L61.1266 65.1852H91.2891C93.3377 65.1831 94.998 63.5261 95 61.4815V3.7037C94.998 1.65905 93.3377 0.00204159 91.2891 0ZM65.3125 74.0741V77.037H29.6875V74.0741H65.3125ZM36.883 65.1852L35.8922 71.1111H59.1078L58.117 65.1852H36.883ZM92.0312 61.4815C92.0312 61.8906 91.699 62.2222 91.2891 62.2222H3.71094C3.30104 62.2222 2.96875 61.8906 2.96875 61.4815V56.2963H92.0312V61.4815ZM2.96875 53.3333H92.0312V3.7037C92.0312 3.2946 91.699 2.96296 91.2891 2.96296H3.71094C3.30104 2.96296 2.96875 3.2946 2.96875 3.7037V53.3333Z" fill="url(#paint0_linear_1_299)"/>
<path fill-rule="evenodd" clip-rule="evenodd" d="M91.2891 0H3.71094C1.66229 0.00204159 0.00204558 1.65905 0 3.7037V61.4815C0.00204558 63.5261 1.66229 65.1831 3.71094 65.1852H33.8734L32.8826 71.1111H28.2031C27.3833 71.1111 26.7188 71.7744 26.7188 72.5926V78.5185C26.7188 79.3367 27.3833 80 28.2031 80H66.7969C67.6167 80 68.2812 79.3367 68.2812 78.5185V72.5926C68.2812 71.7744 67.6167 71.1111 66.7969 71.1111H62.1174L61.1266 65.1852H91.2891C93.3377 65.1831 94.998 63.5261 95 61.4815V3.7037C94.998 1.65905 93.3377 0.00204159 91.2891 0ZM65.3125 74.0741V77.037H29.6875V74.0741H65.3125ZM36.883 65.1852L35.8922 71.1111H59.1078L58.117 65.1852H36.883ZM92.0312 61.4815C92.0312 61.8906 91.699 62.2222 91.2891 62.2222H3.71094C3.30104 62.2222 2.96875 61.8906 2.96875 61.4815V56.2963H92.0312V61.4815ZM2.96875 53.3333H92.0312V3.7037C92.0312 3.2946 91.699 2.96296 91.2891 2.96296H3.71094C3.30104 2.96296 2.96875 3.2946 2.96875 3.7037V53.3333Z" fill="url(#paint1_linear_1_299)"/>
<path fill-rule="evenodd" clip-rule="evenodd" d="M74.2188 50.3703H20.7812C19.9615 50.3703 19.2969 49.7071 19.2969 48.8889V7.40738C19.2969 6.58919 19.9615 5.9259 20.7812 5.9259H74.2188C75.0385 5.9259 75.7031 6.58919 75.7031 7.40738V48.8889C75.7031 49.7071 75.0385 50.3703 74.2188 50.3703ZM72.7344 8.88887H22.2656V47.4074H72.7344V8.88887Z" fill="url(#paint2_linear_1_299)"/>
<path fill-rule="evenodd" clip-rule="evenodd" d="M74.2188 50.3703H20.7812C19.9615 50.3703 19.2969 49.7071 19.2969 48.8889V7.40738C19.2969 6.58919 19.9615 5.9259 20.7812 5.9259H74.2188C75.0385 5.9259 75.7031 6.58919 75.7031 7.40738V48.8889C75.7031 49.7071 75.0385 50.3703 74.2188 50.3703ZM72.7344 8.88887H22.2656V47.4074H72.7344V8.88887Z" fill="url(#paint3_linear_1_299)"/>
<path d="M31.1719 14.8148C31.1719 13.9966 30.5073 13.3333 29.6875 13.3333H26.7188C25.899 13.3333 25.2344 13.9966 25.2344 14.8148C25.2344 15.633 25.899 16.2963 26.7188 16.2963V40C25.899 40 25.2344 40.6633 25.2344 41.4815C25.2344 42.2997 25.899 42.9629 26.7188 42.9629H29.6875C30.5073 42.9629 31.1719 42.2997 31.1719 41.4815C31.1719 40.6633 30.5073 40 29.6875 40V16.2963C30.5073 16.2963 31.1719 15.633 31.1719 14.8148Z" fill="url(#paint4_linear_1_299)"/>
<path d="M31.1719 14.8148C31.1719 13.9966 30.5073 13.3333 29.6875 13.3333H26.7188C25.899 13.3333 25.2344 13.9966 25.2344 14.8148C25.2344 15.633 25.899 16.2963 26.7188 16.2963V40C25.899 40 25.2344 40.6633 25.2344 41.4815C25.2344 42.2997 25.899 42.9629 26.7188 42.9629H29.6875C30.5073 42.9629 31.1719 42.2997 31.1719 41.4815C31.1719 40.6633 30.5073 40 29.6875 40V16.2963C30.5073 16.2963 31.1719 15.633 31.1719 14.8148Z" fill="url(#paint5_linear_1_299)"/>
<path fill-rule="evenodd" clip-rule="evenodd" d="M59.375 26.6666H68.2812C69.101 26.6666 69.7656 27.3299 69.7656 28.1481C69.7656 28.9663 69.101 29.6296 68.2812 29.6296H59.375C59.292 29.6291 59.2091 29.6216 59.1273 29.6074C58.5067 31.3905 56.8249 32.5877 54.9336 32.5927C53.0422 32.5977 51.3541 31.4094 50.7241 29.6296H48.9844C48.1646 29.6296 47.5 28.9663 47.5 28.1481C47.5 27.3299 48.1646 26.6666 48.9844 26.6666H50.7241C51.3541 24.8868 53.0422 23.6985 54.9336 23.7035C56.8249 23.7085 58.5067 24.9057 59.1273 26.6888C59.2091 26.6746 59.292 26.6671 59.375 26.6666ZM53.4375 28.1481C53.4375 28.9663 54.1021 29.6296 54.9219 29.6296C55.7413 29.6287 56.4053 28.9659 56.4062 28.1481C56.4062 27.3299 55.7417 26.6666 54.9219 26.6666C54.1021 26.6666 53.4375 27.3299 53.4375 28.1481Z" fill="url(#paint6_linear_1_299)"/>
<path fill-rule="evenodd" clip-rule="evenodd" d="M59.375 26.6666H68.2812C69.101 26.6666 69.7656 27.3299 69.7656 28.1481C69.7656 28.9663 69.101 29.6296 68.2812 29.6296H59.375C59.292 29.6291 59.2091 29.6216 59.1273 29.6074C58.5067 31.3905 56.8249 32.5877 54.9336 32.5927C53.0422 32.5977 51.3541 31.4094 50.7241 29.6296H48.9844C48.1646 29.6296 47.5 28.9663 47.5 28.1481C47.5 27.3299 48.1646 26.6666 48.9844 26.6666H50.7241C51.3541 24.8868 53.0422 23.6985 54.9336 23.7035C56.8249 23.7085 58.5067 24.9057 59.1273 26.6888C59.2091 26.6746 59.292 26.6671 59.375 26.6666ZM53.4375 28.1481C53.4375 28.9663 54.1021 29.6296 54.9219 29.6296C55.7413 29.6287 56.4053 28.9659 56.4062 28.1481C56.4062 27.3299 55.7417 26.6666 54.9219 26.6666C54.1021 26.6666 53.4375 27.3299 53.4375 28.1481Z" fill="url(#paint7_linear_1_299)"/>
<path fill-rule="evenodd" clip-rule="evenodd" d="M35.625 13.3333H43.0469C43.8667 13.3333 44.5312 13.9966 44.5312 14.8148V41.4815C44.5312 42.2997 43.8667 42.9629 43.0469 42.9629H35.625C34.8052 42.9629 34.1406 42.2997 34.1406 41.4815V14.8148C34.1406 13.9966 34.8052 13.3333 35.625 13.3333ZM37.1094 40H41.5625V16.2963H37.1094V40Z" fill="url(#paint8_linear_1_299)"/>
<path fill-rule="evenodd" clip-rule="evenodd" d="M35.625 13.3333H43.0469C43.8667 13.3333 44.5312 13.9966 44.5312 14.8148V41.4815C44.5312 42.2997 43.8667 42.9629 43.0469 42.9629H35.625C34.8052 42.9629 34.1406 42.2997 34.1406 41.4815V14.8148C34.1406 13.9966 34.8052 13.3333 35.625 13.3333ZM37.1094 40H41.5625V16.2963H37.1094V40Z" fill="url(#paint9_linear_1_299)"/>
<path fill-rule="evenodd" clip-rule="evenodd" d="M65.3125 16.2963H68.2812C69.101 16.2963 69.7656 16.9595 69.7656 17.7777C69.7656 18.5959 69.101 19.2592 68.2812 19.2592H65.3125C65.2295 19.2587 65.1466 19.2513 65.0648 19.237C64.4442 21.0202 62.7624 22.2173 60.8711 22.2223C58.9797 22.2273 57.2916 21.0391 56.6616 19.2592H48.9844C48.1646 19.2592 47.5 18.5959 47.5 17.7777C47.5 16.9595 48.1646 16.2963 48.9844 16.2963H56.6616C57.2916 14.5164 58.9797 13.3281 60.8711 13.3331C62.7624 13.3381 64.4442 14.5353 65.0648 16.3185C65.1466 16.3042 65.2295 16.2968 65.3125 16.2963ZM59.375 17.7777C59.375 18.5959 60.0396 19.2592 60.8594 19.2592C61.6788 19.2583 62.3428 18.5956 62.3438 17.7777C62.3438 16.9595 61.6792 16.2963 60.8594 16.2963C60.0396 16.2963 59.375 16.9595 59.375 17.7777Z" fill="url(#paint10_linear_1_299)"/>
<path fill-rule="evenodd" clip-rule="evenodd" d="M65.3125 16.2963H68.2812C69.101 16.2963 69.7656 16.9595 69.7656 17.7777C69.7656 18.5959 69.101 19.2592 68.2812 19.2592H65.3125C65.2295 19.2587 65.1466 19.2513 65.0648 19.237C64.4442 21.0202 62.7624 22.2173 60.8711 22.2223C58.9797 22.2273 57.2916 21.0391 56.6616 19.2592H48.9844C48.1646 19.2592 47.5 18.5959 47.5 17.7777C47.5 16.9595 48.1646 16.2963 48.9844 16.2963H56.6616C57.2916 14.5164 58.9797 13.3281 60.8711 13.3331C62.7624 13.3381 64.4442 14.5353 65.0648 16.3185C65.1466 16.3042 65.2295 16.2968 65.3125 16.2963ZM59.375 17.7777C59.375 18.5959 60.0396 19.2592 60.8594 19.2592C61.6788 19.2583 62.3428 18.5956 62.3438 17.7777C62.3438 16.9595 61.6792 16.2963 60.8594 16.2963C60.0396 16.2963 59.375 16.9595 59.375 17.7777Z" fill="url(#paint11_linear_1_299)"/>
<path fill-rule="evenodd" clip-rule="evenodd" d="M65.3125 37.037H68.2812C69.101 37.037 69.7656 37.7003 69.7656 38.5185C69.7656 39.3367 69.101 40 68.2812 40H65.3125C65.2295 39.9995 65.1466 39.9921 65.0648 39.9778C64.4442 41.7609 62.7624 42.9581 60.8711 42.9631C58.9797 42.9681 57.2916 41.7799 56.6616 40H48.9844C48.1646 40 47.5 39.3367 47.5 38.5185C47.5 37.7003 48.1646 37.037 48.9844 37.037H56.6616C57.2916 35.2572 58.9797 34.0689 60.8711 34.0739C62.7624 34.0789 64.4442 35.2761 65.0648 37.0593C65.1466 37.045 65.2295 37.0376 65.3125 37.037ZM59.375 38.5185C59.375 39.3367 60.0396 40 60.8594 40C61.6788 39.9991 62.3428 39.3363 62.3438 38.5185C62.3438 37.7003 61.6792 37.037 60.8594 37.037C60.0396 37.037 59.375 37.7003 59.375 38.5185Z" fill="url(#paint12_linear_1_299)"/>
<path fill-rule="evenodd" clip-rule="evenodd" d="M65.3125 37.037H68.2812C69.101 37.037 69.7656 37.7003 69.7656 38.5185C69.7656 39.3367 69.101 40 68.2812 40H65.3125C65.2295 39.9995 65.1466 39.9921 65.0648 39.9778C64.4442 41.7609 62.7624 42.9581 60.8711 42.9631C58.9797 42.9681 57.2916 41.7799 56.6616 40H48.9844C48.1646 40 47.5 39.3367 47.5 38.5185C47.5 37.7003 48.1646 37.037 48.9844 37.037H56.6616C57.2916 35.2572 58.9797 34.0689 60.8711 34.0739C62.7624 34.0789 64.4442 35.2761 65.0648 37.0593C65.1466 37.045 65.2295 37.0376 65.3125 37.037ZM59.375 38.5185C59.375 39.3367 60.0396 40 60.8594 40C61.6788 39.9991 62.3428 39.3363 62.3438 38.5185C62.3438 37.7003 61.6792 37.037 60.8594 37.037C60.0396 37.037 59.375 37.7003 59.375 38.5185Z" fill="url(#paint13_linear_1_299)"/>
<defs>
<linearGradient id="paint0_linear_1_299" x1="-13.7305" y1="84.9325" x2="92.9842" y2="84.9325" gradientUnits="userSpaceOnUse">
<stop stop-color="#003F8A"/>
<stop offset="0.518" stop-color="#00D7DF"/>
<stop offset="1" stop-color="#006DF0"/>
</linearGradient>
<linearGradient id="paint1_linear_1_299" x1="115.332" y1="94.5294" x2="140.243" y2="-21.7691" gradientUnits="userSpaceOnUse">
<stop stop-color="#FBA36A"/>
<stop offset="1" stop-color="#D75400"/>
</linearGradient>
<linearGradient id="paint2_linear_1_299" x1="-1.02095e-06" y1="64.7809" x2="92.9842" y2="64.7809" gradientUnits="userSpaceOnUse">
<stop stop-color="#003F8A"/>
<stop offset="0.518" stop-color="#00D7DF"/>
<stop offset="1" stop-color="#006DF0"/>
</linearGradient>
<linearGradient id="paint3_linear_1_299" x1="87.7751" y1="58.4422" x2="100.795" y2="-6.52292" gradientUnits="userSpaceOnUse">
<stop stop-color="#FBA36A"/>
<stop offset="1" stop-color="#D75400"/>
</linearGradient>
<linearGradient id="paint4_linear_1_299" x1="2.59795e-06" y1="260.156" x2="92.9842" y2="260.156" gradientUnits="userSpaceOnUse">
<stop stop-color="#003F8A"/>
<stop offset="0.518" stop-color="#00D7DF"/>
<stop offset="1" stop-color="#006DF0"/>
</linearGradient>
<linearGradient id="paint5_linear_1_299" x1="32.4426" y1="48.3442" x2="54.3418" y2="31.0915" gradientUnits="userSpaceOnUse">
<stop stop-color="#FBA36A"/>
<stop offset="1" stop-color="#D75400"/>
</linearGradient>
<linearGradient id="paint6_linear_1_299" x1="-3.32537e-06" y1="46.7094" x2="92.9842" y2="46.7094" gradientUnits="userSpaceOnUse">
<stop stop-color="#003F8A"/>
<stop offset="0.518" stop-color="#00D7DF"/>
<stop offset="1" stop-color="#006DF0"/>
</linearGradient>
<linearGradient id="paint7_linear_1_299" x1="74.5309" y1="34.2072" x2="75.8894" y2="20.8297" gradientUnits="userSpaceOnUse">
<stop stop-color="#FBA36A"/>
<stop offset="1" stop-color="#D75400"/>
</linearGradient>
<linearGradient id="paint8_linear_1_299" x1="-1.2866e-06" y1="160.724" x2="92.9842" y2="160.724" gradientUnits="userSpaceOnUse">
<stop stop-color="#003F8A"/>
<stop offset="0.518" stop-color="#00D7DF"/>
<stop offset="1" stop-color="#006DF0"/>
</linearGradient>
<linearGradient id="paint9_linear_1_299" x1="46.755" y1="48.3442" x2="68.1663" y2="18.8246" gradientUnits="userSpaceOnUse">
<stop stop-color="#FBA36A"/>
<stop offset="1" stop-color="#D75400"/>
</linearGradient>
<linearGradient id="paint10_linear_1_299" x1="-3.32537e-06" y1="36.3391" x2="92.9842" y2="36.3391" gradientUnits="userSpaceOnUse">
<stop stop-color="#003F8A"/>
<stop offset="0.518" stop-color="#00D7DF"/>
<stop offset="1" stop-color="#006DF0"/>
</linearGradient>
<linearGradient id="paint11_linear_1_299" x1="74.5309" y1="23.8368" x2="75.8894" y2="10.4593" gradientUnits="userSpaceOnUse">
<stop stop-color="#FBA36A"/>
<stop offset="1" stop-color="#D75400"/>
</linearGradient>
<linearGradient id="paint12_linear_1_299" x1="-3.32537e-06" y1="57.0799" x2="92.9842" y2="57.0799" gradientUnits="userSpaceOnUse">
<stop stop-color="#003F8A"/>
<stop offset="0.518" stop-color="#00D7DF"/>
<stop offset="1" stop-color="#006DF0"/>
</linearGradient>
<linearGradient id="paint13_linear_1_299" x1="74.5309" y1="44.5776" x2="75.8894" y2="31.2001" gradientUnits="userSpaceOnUse">
<stop stop-color="#FBA36A"/>
<stop offset="1" stop-color="#D75400"/>
</linearGradient>
</defs>
</svg>
