<svg width="80" height="80" viewBox="0 0 80 80" fill="none" xmlns="http://www.w3.org/2000/svg">
<path fill-rule="evenodd" clip-rule="evenodd" d="M76 77.3347V28.0272C76 27.2913 75.403 26.6946 74.6667 26.6946H61.3333C60.597 26.6946 60 27.2913 60 28.0272V77.3347H57.3333V46.6841C57.3333 45.9482 56.7363 45.3515 56 45.3515H42.6667C41.9303 45.3515 41.3333 45.9482 41.3333 46.6841V77.3347H38.6667V33.3578C38.6667 32.6218 38.0697 32.0251 37.3333 32.0251H24C23.2637 32.0251 22.6667 32.6218 22.6667 33.3578V77.3347H20V52.0146C20 51.2787 19.403 50.682 18.6667 50.682H5.33333C4.597 50.682 4 51.2787 4 52.0146V77.3347H0V80H80V77.3347H76ZM6.66667 77.3347V53.3473H17.3333V77.3347H6.66667ZM25.3333 34.6904V77.3347H36V34.6904H25.3333ZM44 77.3347V48.0167H54.6667V77.3347H44ZM62.6667 29.3598V77.3347H73.3333V29.3598H62.6667Z" fill="url(#paint0_linear_1_346)"/>
<path fill-rule="evenodd" clip-rule="evenodd" d="M12 37.3557C15.6818 37.3555 18.6665 34.3722 18.6663 30.6922C18.6663 29.3859 18.282 28.1082 17.5613 27.0184L26.9987 17.5847C28.0803 18.3082 29.3518 18.6958 30.6533 18.6988C31.0458 18.699 31.4375 18.6646 31.824 18.5962C33.0925 18.374 34.2685 17.7866 35.208 16.9064L43.1187 22.9845C41.7983 26.4197 43.5142 30.2744 46.9512 31.594C50.3882 32.9137 54.2448 31.1987 55.5652 27.7635C56.3395 25.7489 56.0897 23.4843 54.8947 21.6866L64.3293 12.2568C67.4088 14.2941 71.5576 13.4504 73.5958 10.3725C75.634 7.2946 74.79 3.14794 71.7105 1.11084C68.631 -0.926256 64.4822 -0.0826981 62.444 2.99519C60.963 5.23152 60.963 8.13616 62.444 10.3725L53.0093 19.8022C50.3668 18.0565 46.8602 18.4103 44.62 20.6484C44.6071 20.6613 44.597 20.6751 44.5871 20.6888C44.5774 20.7021 44.5678 20.7152 44.556 20.7271L36.76 14.7382C38.2575 11.3763 36.7447 7.43769 33.381 5.94098C30.0173 4.44426 26.0767 5.9563 24.5792 9.31821C23.653 11.3976 23.8528 13.8059 25.1093 15.7042L15.676 25.1339C12.6045 23.1045 8.46865 23.948 6.43832 27.0179C4.40799 30.0878 5.25182 34.2215 8.32332 36.2508C9.41382 36.9715 10.6925 37.3557 12 37.3557ZM68 2.70717C70.2092 2.70717 72 4.49707 72 6.70508C72 8.91309 70.2092 10.703 68 10.703C65.7908 10.703 64 8.91309 64 6.70508C64 4.49707 65.7908 2.70717 68 2.70717ZM53.3338 25.3615C53.3335 23.1535 51.5425 21.3637 49.3333 21.3641C48.2718 21.3639 47.2538 21.7855 46.5035 22.5359C44.942 24.0976 44.9427 26.629 46.5053 28.1898C48.0887 29.6982 50.578 29.6982 52.1613 28.1898C52.9122 27.4399 53.334 26.4224 53.3338 25.3615ZM27.3907 9.74215C27.997 8.87161 28.9263 8.27942 29.972 8.09768C30.2042 8.05787 30.4392 8.03788 30.6747 8.03771C31.4932 8.03855 32.2915 8.29125 32.9613 8.76133C34.7708 10.028 35.2103 12.5209 33.9432 14.3294C32.676 16.138 30.1817 16.5772 28.3722 15.3107C26.5627 14.0441 26.1232 11.5512 27.3903 9.74265L27.3907 9.74215ZM14.8293 27.866C13.2675 26.3041 10.7347 26.3036 9.17199 27.8647L9.17015 27.8665C7.60865 29.4282 7.60932 31.9595 9.17199 33.5204C10.7553 35.0287 13.2447 35.0287 14.828 33.5204C16.3907 31.9593 16.3912 29.4278 14.8293 27.866Z" fill="url(#paint1_linear_1_346)"/>
<defs>
<linearGradient id="paint0_linear_1_346" x1="97.1215" y1="89.6812" x2="110.474" y2="10.8971" gradientUnits="userSpaceOnUse">
<stop stop-color="#FBA36A"/>
<stop offset="1" stop-color="#D75400"/>
</linearGradient>
<linearGradient id="paint1_linear_1_346" x1="89.5547" y1="44.1401" x2="97.1905" y2="-11.6107" gradientUnits="userSpaceOnUse">
<stop stop-color="#FBA36A"/>
<stop offset="1" stop-color="#D75400"/>
</linearGradient>
</defs>
</svg>
